HIERARCHY
ROOT hip
{
	OFFSET 0.000000 0.000000 0.000000 
	CHANNELS 6 Xposition Yposition Zposition Xrotation Zrotation Yrotation
	JOINT abdomen
	{
		OFFSET 0.000000 3.402643 0.000000 
		CHANNELS 3 Xrotation Zrotation Yrotation
		JOINT chest
		{
			OFFSET 0.000000 8.438565 -0.680529 
			CHANNELS 3 Xrotation Zrotation Yrotation
			JOINT neck
			{
				OFFSET 0.000000 10.207942 -0.272212 
				CHANNELS 3 Xrotation Zrotation Yrotation
				JOINT head
				{
					OFFSET 0.000000 3.130431 0.000000 
					CHANNELS 3 Xrotation Zrotation Yrotation
					End Site
					{
						OFFSET 0.000000 3.130435 0.000000 
					}
				}
			}
			JOINT lCollar
			{
				OFFSET 3.470700 6.669187 -0.816635 
				CHANNELS 3 Yrotation Zrotation Xrotation
				JOINT lShldr
				{
					OFFSET 3.198488 0.000000 0.000000 
					CHANNELS 3 Zrotation Yrotation Xrotation
					JOINT lForeArm
					{
						OFFSET 10.139888 0.000000 0.000000 
						CHANNELS 3 Yrotation Zrotation Xrotation
						JOINT lHand
						{
							OFFSET 8.370511 0.000000 0.000000 
							CHANNELS 3 Zrotation Yrotation Xrotation
							End Site
							{
								OFFSET 4.083176 0.000000 0.000000 
							}
						}
					}
				}
			}
			JOINT rCollar
			{
				OFFSET -3.470700 6.669187 -0.816635 
				CHANNELS 3 Yrotation Zrotation Xrotation
				JOINT rShldr
				{
					OFFSET -3.198488 0.000000 0.000000 
					CHANNELS 3 Zrotation Yrotation Xrotation
					JOINT rForeArm
					{
						OFFSET -10.139888 0.000000 0.000000 
						CHANNELS 3 Yrotation Zrotation Xrotation
						JOINT rHand
						{
							OFFSET -8.370511 0.000000 0.000000 
							CHANNELS 3 Zrotation Yrotation Xrotation
							End Site
							{
								OFFSET -4.083176 0.000000 0.000000 
							}
						}
					}
				}
			}
		}
	}
	JOINT lThigh
	{
		OFFSET 5.308129 -1.633274 1.361059 
		CHANNELS 3 Xrotation Zrotation Yrotation
		JOINT lShin
		{
			OFFSET -2.041588 -20.007561 0.000000 
			CHANNELS 3 Xrotation Zrotation Yrotation
			JOINT lFoot
			{
				OFFSET 0.000000 -19.190928 -1.224953 
				CHANNELS 3 Xrotation Yrotation Zrotation
				End Site
				{
					OFFSET 0.000000 -2.449906 4.627600 
				}
			}
		}
	}
	JOINT rThigh
	{
		OFFSET -5.308129 -1.633274 1.361059 
		CHANNELS 3 Xrotation Zrotation Yrotation
		JOINT rShin
		{
			OFFSET 2.041588 -20.007561 0.000000 
			CHANNELS 3 Xrotation Zrotation Yrotation
			JOINT rFoot
			{
				OFFSET 0.000000 -19.190928 -1.224953 
				CHANNELS 3 Xrotation Yrotation Zrotation
				End Site
				{
					OFFSET 0.000000 -2.449906 4.627600 
				}
			}
		}
	}
}
MOTION
Frames: 20
Frame Time: 0.033333
4.908011 49.667698 -2.563111 1.219500 -5.816624 -13.331737 0.000000 0.000000 0.000000 3.236817 1.874474 -1.357973 5.557156 -0.009752 -3.027346 6.633099 4.807367 -3.115812 0.411946 -3.565087 3.630558 -73.044205 7.345783 6.446895 -37.232727 -8.752799 44.233639 -9.498440 0.747580 -3.233296 -4.922340 10.643414 4.013670 65.119080 -15.305475 3.803731 33.648838 9.465781 26.361139 8.520234 -7.938426 -3.920529 -10.271606 9.236365 4.870226 23.051512 -2.247788 33.605602 -10.350021 0.628484 -6.972639 -10.668565 -9.320563 -6.205035 14.494490 4.655779 1.351623 5.828004 0.487929 9.079283 
5.010987 49.668159 -2.827301 1.466811 -6.455223 -14.961198 0.000000 0.000000 0.000000 3.532856 2.245269 -1.553838 5.917592 -0.185309 -2.900407 7.749815 3.969612 -2.877721 0.386925 -3.663828 3.904702 -70.671356 5.501133 9.541532 -37.528603 -10.126868 45.738220 -9.205603 1.277508 -3.301911 -5.191141 10.474969 4.306437 65.964897 -16.213320 4.964522 34.307148 9.888024 26.240196 9.897691 -9.163671 -4.102626 -10.652284 9.968505 5.139343 23.552269 -2.196938 34.396973 -10.246792 0.637382 -7.117640 -11.658996 -9.364140 -6.474933 15.500462 5.691000 5.376916 6.819882 0.521132 8.403030 
5.048486 49.618702 -3.072994 1.835451 -6.523157 -16.388411 0.000000 0.000000 0.000000 3.495820 2.235275 -1.759141 6.131777 -0.555923 -2.910304 8.753196 3.063060 -2.679261 0.290263 -3.709585 3.875494 -68.247849 3.472344 11.977855 -37.442993 -11.182785 48.828220 -10.043335 0.525811 -3.196789 -5.255766 10.053679 4.241430 66.873077 -16.804272 4.919930 34.084122 9.957533 26.222198 10.818671 -8.990993 -4.121432 -11.366014 10.194087 4.991208 24.157990 -1.992146 35.497913 -10.049401 0.678685 -7.525989 -13.091346 -9.986183 -6.737249 17.473938 6.495879 10.615937 6.874503 0.485402 7.777940 
5.025458 49.583885 -3.288511 1.940349 -6.548974 -17.796091 0.000000 0.000000 0.000000 3.564991 2.137597 -1.817327 6.350244 -0.819255 -2.910557 9.997155 2.604660 -2.639318 0.065955 -3.666209 3.933978 -65.595123 1.299579 13.681193 -37.275738 -12.103969 50.319527 -11.423130 0.009499 -3.110242 -5.346430 9.924058 4.307925 66.466270 -16.942755 5.846346 33.950180 10.340575 25.298132 9.582314 -9.258664 -4.093599 -11.639007 10.467033 5.151951 24.524935 -1.983158 36.700104 -9.803180 0.681853 -7.843449 -13.911693 -10.611095 -7.106902 19.233383 7.050097 15.632633 6.686008 0.425327 7.151997 
4.943314 49.579437 -3.461044 1.523337 -6.693222 -19.572388 0.000000 0.000000 0.000000 3.944403 2.040148 -1.670949 6.906183 -1.121902 -2.588541 11.093571 2.604781 -2.580785 0.303659 -3.679029 4.267189 -63.072903 -0.956204 14.257816 -36.542019 -12.673056 50.606174 -12.033342 -0.281919 -3.055248 -5.307175 9.588732 4.620014 65.834740 -16.704659 6.763569 33.881668 10.598432 24.819344 7.718547 -9.778984 -4.034669 -10.827203 10.670459 5.585983 24.624258 -2.087702 37.406006 -9.826923 0.686342 -8.143760 -13.348969 -10.800160 -7.327742 19.430372 7.128495 17.255781 6.589539 0.442987 6.996615 
4.839108 49.660675 -3.730259 2.066348 -6.952665 -20.588352 0.000000 0.000000 0.000000 3.673409 2.244788 -1.954304 7.293142 -0.751028 -2.842065 11.710572 1.853890 -2.364255 -0.189543 -2.744548 4.008615 -61.805031 -2.872671 13.318645 -34.448784 -12.438795 51.275101 -11.463984 -0.508485 -3.045768 -5.638003 10.351976 4.441061 64.403160 -16.357023 7.071468 33.933247 10.697969 23.913666 6.602620 -9.332316 -3.944472 -10.961997 11.331917 5.817092 24.067528 -2.072364 37.697227 -9.317629 0.666500 -8.099001 -12.955025 -10.376798 -7.700233 18.859814 7.078574 11.365589 7.620049 0.529448 7.555606 
4.684759 49.697670 -3.956854 1.898478 -6.668974 -21.806087 0.000000 0.000000 0.000000 3.699940 2.039829 -1.954320 7.651599 -0.877795 -2.881270 12.084804 1.580751 -2.305426 -0.268824 -2.711173 4.037844 -60.332306 -4.520247 11.148372 -32.885254 -11.578191 51.985058 -10.363497 -0.241719 -3.112776 -5.601082 10.109101 4.447308 63.812122 -15.522715 6.827271 33.215878 10.603605 23.994106 5.142083 -8.712324 -3.822158 -10.541719 11.428776 6.062924 23.402182 -2.148766 38.631344 -8.594428 0.639021 -8.192944 -11.432218 -10.210938 -8.182707 17.019432 6.330448 1.518358 8.338109 0.657783 8.598844 
4.440325 49.714371 -4.172732 1.343225 -6.426697 -22.926132 0.000000 0.000000 0.000000 3.962439 1.815382 -1.924718 8.212404 -1.170434 -2.842401 11.762258 1.561193 -2.344476 -0.160652 -2.969349 4.263681 -58.665840 -6.172122 8.796990 -31.330605 -10.840072 50.076241 -8.834301 0.399095 -3.224158 -5.598042 9.612081 4.648427 63.493240 -14.463858 6.590915 32.446888 10.446765 24.045685 1.064839 -8.593298 -3.627114 -9.692909 11.399954 6.267475 22.807760 -2.140071 39.461895 -7.889902 0.592841 -8.423649 -9.734105 -9.987104 -8.734869 15.964278 5.262332 -8.086668 7.939245 0.600143 8.554143 
4.111575 49.700233 -4.397050 1.208969 -5.933555 -23.679672 0.000000 0.000000 0.000000 4.094999 1.767214 -1.162460 7.462743 -1.512045 -2.657386 11.690023 2.359359 -3.303206 -0.609800 -3.562469 4.363673 -57.163349 -8.731776 5.168115 -30.278645 -9.709605 47.133259 -7.968636 0.822950 -3.289490 -5.870221 9.943686 4.869152 62.462471 -13.180182 5.651540 33.337444 10.172766 23.038609 0.301333 -8.826646 -3.597622 -9.627444 11.394367 6.348829 22.407761 -2.077610 40.809528 -6.990556 0.545017 -8.744683 -8.599100 -9.836643 -9.386861 15.825179 4.537808 -15.964797 6.711996 0.495035 8.561703 
3.700258 49.656681 -4.620729 1.170200 -5.286670 -24.378130 0.000000 0.000000 0.000000 3.575611 1.425284 -1.513932 7.563916 -1.531432 -2.755010 11.821900 2.038470 -2.862990 -0.384693 -3.393474 3.913123 -56.243923 -9.262800 2.441027 -29.086327 -8.764874 43.096889 -6.518291 1.271001 -3.348112 -5.691824 9.172881 4.305235 62.658421 -12.527635 5.611006 32.095345 10.118450 23.051331 1.502537 -8.282705 -3.638110 -9.712685 11.497838 6.480973 22.251900 -2.326091 41.456024 -6.461314 0.478570 -9.049017 -7.702614 -9.712175 -9.787639 15.969130 3.880930 -21.449949 4.564394 0.342946 8.415694 
3.213020 49.591377 -4.851540 1.183866 -4.415879 -25.070353 0.000000 0.000000 0.000000 2.897464 1.073735 -1.718997 7.511354 -1.872864 -2.736105 11.847890 2.087663 -2.618651 -0.027789 -3.425220 3.297380 -55.574833 -9.872521 -0.079070 -28.029959 -7.990061 39.038525 -5.291305 0.839419 -3.342853 -5.224020 8.588764 3.591539 62.487762 -11.980395 5.611701 30.949722 10.047719 23.164375 0.117690 -6.881063 -3.573397 -9.704995 11.422781 6.414398 22.154318 -2.375139 41.139473 -6.086829 0.531685 -9.622941 -5.573768 -9.632050 -10.209677 14.001929 3.680046 -22.547705 2.363413 0.195252 9.549085 
2.629192 49.532825 -5.096809 1.200812 -3.354308 -25.672192 0.000000 0.000000 0.000000 2.257302 0.741967 -1.396494 6.892633 -2.351150 -2.570602 11.725470 2.379779 -2.892996 0.218999 -4.007810 2.712106 -54.612675 -11.109101 -2.652935 -27.485514 -6.922505 38.032455 -5.313000 1.042720 -3.362045 -4.832886 8.014959 2.958455 62.539902 -11.216063 5.080451 30.464115 9.624195 23.846947 -0.069991 -6.716547 -3.551489 -9.712955 11.283600 6.337859 21.674288 -2.422009 41.326454 -5.356764 0.503041 -10.167571 -5.389012 -9.887404 -9.904333 16.101223 3.690101 -18.080593 -1.524941 -0.166767 10.596045 
1.946020 49.453079 -5.381382 1.062074 -2.525641 -26.121143 0.000000 0.000000 0.000000 1.739933 0.380773 -1.220676 6.553579 -2.487881 -2.492973 11.461221 2.399306 -2.883238 0.338833 -3.915547 2.241754 -54.350086 -12.091825 -4.670312 -26.578379 -6.217014 35.217922 -3.806186 1.518153 -3.407350 -4.759340 8.103383 2.487772 62.004532 -10.565454 5.345845 30.066050 9.657943 24.681864 -0.126198 -6.289514 -3.549692 -9.566778 11.420660 6.447997 21.350748 -2.416709 41.582199 -4.574699 0.458365 -10.830726 -3.777921 -9.563136 -9.345746 14.342157 3.337732 -15.917959 -4.670011 -0.445609 10.076125 
1.218991 49.403275 -5.668448 0.884001 -1.667868 -26.604090 0.000000 0.000000 0.000000 1.199075 0.117169 -1.025389 6.165048 -2.751696 -2.297900 11.239686 2.662482 -2.952384 0.540860 -3.950186 1.752578 -54.297100 -12.828327 -6.132178 -25.769131 -5.690660 33.887627 -2.492859 1.456621 -3.424585 -4.387258 7.990033 1.966855 62.108952 -9.780977 5.049772 29.100134 9.530680 25.330896 -0.859846 -5.816638 -3.518083 -9.126073 11.486625 6.392234 20.405582 -2.315071 42.070400 -3.426064 0.350381 -11.365833 -3.885970 -9.731880 -8.887506 14.226420 3.143306 -15.372466 -6.208074 -0.545797 9.684069 
0.385706 49.384323 -5.978110 0.756213 -1.179915 -27.330610 0.000000 0.000000 0.000000 0.701494 0.136709 -0.683592 5.786738 -2.820721 -1.897041 11.031628 2.565045 -2.912920 0.815590 -4.084126 1.302368 -54.109768 -13.414680 -6.916093 -24.825167 -5.378295 34.300716 -1.796080 0.920379 -3.418510 -3.925705 8.405182 1.525502 61.342415 -9.089001 6.252929 29.025728 9.987945 24.350050 1.295740 -5.800814 -3.571055 -8.287685 11.898432 6.604084 19.145035 -2.056621 42.326973 -2.164751 0.241740 -11.974769 -5.234370 -9.784800 -9.060377 16.757248 3.827795 -15.390805 -7.705274 -0.598631 8.759323 
-0.478109 49.416702 -6.305266 0.584800 -1.471349 -28.232832 0.000000 0.000000 0.000000 0.571175 0.771468 -0.371060 5.596096 -2.469999 -1.368863 10.729022 1.931438 -2.706502 1.152988 -3.834646 1.174908 -54.685566 -13.555590 -7.351477 -24.414705 -5.006167 34.704811 -1.193063 0.809045 -3.435133 -3.439812 9.077991 1.431361 60.931736 -8.250270 6.274990 28.952291 9.904022 25.098976 2.299859 -5.163265 -3.574693 -6.765617 12.954079 7.169602 17.371029 -1.659924 42.471115 -0.625514 0.074722 -12.440828 -5.134623 -8.783678 -9.019030 17.439974 4.481744 -15.062811 -8.717602 -0.595306 7.420723 
-1.331707 49.481434 -6.650559 1.134601 -2.513573 -29.269526 0.000000 0.000000 0.000000 0.316545 2.236321 -0.146373 5.202641 -1.474510 -0.664345 10.433506 1.326995 -2.363778 1.706560 -2.912773 0.909120 -56.620514 -12.985489 -7.625274 -25.236132 -4.348693 35.121075 -1.232849 0.982718 -3.439288 -2.931428 10.486853 1.239742 60.028553 -7.294372 6.616314 29.183825 10.182316 23.371508 0.976424 -5.380064 -3.553016 -5.574897 14.926590 7.951195 15.749192 -1.044110 42.281017 0.846640 -0.083056 -13.001184 -4.517709 -6.389372 -7.985287 16.126461 4.644325 -15.049236 -8.715380 -0.479039 6.217165 
-2.213324 49.467731 -7.048817 2.170598 -3.083059 -30.155972 0.000000 0.000000 0.000000 -0.502141 3.427732 -0.068237 4.786541 -0.312497 -0.253956 9.603983 0.448963 -1.933611 1.781342 -1.802699 0.127136 -59.829754 -10.571034 -7.919254 -28.763767 -3.421998 35.157818 -1.910505 1.686020 -3.444937 -2.498802 11.814269 0.516596 58.686127 -6.714800 6.781996 29.316774 10.362743 23.445015 0.397273 -6.403757 -3.557728 -5.360675 16.899176 8.726762 14.733061 -0.665488 41.987267 2.051847 -0.241173 -13.657681 -4.997652 -4.265016 -7.009613 15.989310 5.063863 -14.675517 -9.376099 -0.430727 4.882733 
-3.103055 49.351326 -7.375441 2.483069 -3.077007 -30.879848 0.000000 0.000000 0.000000 -1.027447 3.847639 -0.176040 4.256824 0.527343 -0.107417 9.106385 -0.205021 -1.347682 1.732275 -0.958207 -0.361112 -64.404884 -7.581097 -9.875480 -33.692482 -1.425694 37.590103 -4.734560 0.851599 -3.342676 -2.573378 12.213737 0.068811 57.805988 -5.951986 7.339569 30.106409 10.241852 24.500397 3.443348 -7.080491 -3.676329 -4.716549 17.954044 9.263182 13.909577 -0.144858 41.685272 3.141352 -0.388596 -14.617201 -5.934872 -3.347763 -6.907151 17.887566 5.613509 -13.528565 -11.062119 -0.383751 3.659434 
-3.962743 49.234013 -7.794420 2.895456 -3.335117 -30.937338 0.000000 0.000000 0.000000 -1.266482 4.394294 -0.596945 3.620470 1.259763 -0.117159 8.603029 0.537012 -1.093793 1.168536 -0.343599 -0.566278 -67.793800 -4.781067 -10.207142 -38.183376 -0.635644 38.887115 -6.949886 -0.080841 -3.246480 -2.887656 12.993219 -0.101621 56.624073 -5.069042 8.118868 31.734713 9.903767 24.387363 5.733597 -7.574065 -3.782483 -4.384548 19.320511 10.047502 12.935070 0.360770 40.352493 4.327073 -0.561879 -15.343864 -6.685420 -2.000430 -6.582764 19.173050 6.011410 -13.408170 -12.266741 -0.293585 2.605693 
